<svg id="Calque_1" data-name="Calque 1" xmlns="http://www.w3.org/2000/svg" viewBox="0 0 1133.85827 1133.85827"><title>OG_logo_form</title><circle cx="445.83795" cy="647.29071" r="29.76941" style="fill:#fff"/><circle cx="691.26671" cy="647.29071" r="29.76941" transform="translate(-171.2882 1038.23055) rotate(-67.50001)" style="fill:#fff"/><path d="M428.9137,307.94434H707.13812a12.84521,12.84521,0,0,1,12.84521,12.84521V571.53638a12.84515,12.84515,0,0,1-12.84515,12.84515H428.9137a12.84515,12.84515,0,0,1-12.84515-12.84515V320.78949A12.84515,12.84515,0,0,1,428.9137,307.94434Z" style="fill:#fff"/><path d="M921.00366,364.81036a385.16366,385.16366,0,0,0-708.73065,0,383.58082,383.58082,0,0,0,204.66974,502.4278q7.25748,3.05932,14.60705,5.805a352.662,352.662,0,0,1,58.43171,31.36243c31.32092,21.149,68.6568,55.81677,68.6568,100.871a8,8,0,0,0,7.99353,8h.00659c.04907,0,.09649-.00647.14532-.00732.04883.00085.09619.00732.14527.00732h.00659a8,8,0,0,0,7.99353-8c0-74.28747,99.52722-120.93,130.47223-133.63251q3.35265-1.29454,6.68835-2.64782c1.43933-.54511,2.28192-.84528,2.3833-.88062a7.94906,7.94906,0,0,0,1.499-.7276c.12042-.0506.24145-.09918.36181-.1499a383.09315,383.09315,0,0,0,204.6698-502.4278ZM781.10638,520.30579A16.09455,16.09455,0,0,1,765.059,536.35321H747.78436V687.79456a29.21536,29.21536,0,0,1-27.801,29.09155V743.865a33.45481,33.45481,0,0,1-33.35675,33.35675h-22.68A33.45477,33.45477,0,0,1,630.58984,743.865V716.91992H505.41809V743.865a33.45477,33.45477,0,0,1-33.35675,33.35675h-22.68A33.45482,33.45482,0,0,1,416.02454,743.865V716.81067a29.21789,29.21789,0,0,1-26.70423-29.01611V536.35321h-18.3714a16.0946,16.0946,0,0,1-16.04742-16.04742V460.77216a16.0946,16.0946,0,0,1,16.04742-16.04737h18.3714V310.08612a29.211,29.211,0,0,1,29.12531-29.12537H718.659a29.211,29.211,0,0,1,29.12536,29.12537V444.72479H765.059a16.09454,16.09454,0,0,1,16.04736,16.04737Z" style="fill:#fff"/></svg>